<svg width="60" height="60" viewBox="0 0 60 60" xmlns="http://www.w3.org/2000/svg">
  <g fill="#2d6a4f" fill-opacity="0.3">
    <!-- Leaf 1 -->
    <path d="M10,15 C15,10 25,10 30,15 C25,20 15,20 10,15 Z" />
    <path d="M10,15 C5,20 5,30 10,35 C15,30 15,20 10,15 Z" />
    
    <!-- Leaf 2 -->
    <path d="M40,45 C45,40 55,40 50,45 C45,50 35,50 40,45 Z" />
    <path d="M40,45 C35,50 35,60 40,55 C45,50 45,40 40,45 Z" />
    
    <!-- Small decorative elements -->
    <circle cx="25" cy="35" r="2" />
    <circle cx="45" cy="15" r="2" />
    <circle cx="15" cy="45" r="1" />
    <circle cx="35" cy="25" r="1" />
  </g>
</svg> 